<mxfile host="app.diagrams.net" agent="Mozilla/5.0 (Windows NT 10.0; Win64; x64) AppleWebKit/537.36 (KHTML, like Gecko) Chrome/131.0.0.0 Safari/537.36" version="25.0.1">
  <diagram name="Page-1" id="LrDtUknnzBFn8wABLJD4">
    <mxGraphModel dx="1050" dy="653" grid="1" gridSize="10" guides="1" tooltips="1" connect="1" arrows="1" fold="1" page="1" pageScale="1" pageWidth="850" pageHeight="1100" math="0" shadow="0">
      <root>
        <mxCell id="0" />
        <mxCell id="1" parent="0" />
        <mxCell id="Kd0Ei4XJhB6o2B5MOtn7-1" value="" style="rounded=1;whiteSpace=wrap;html=1;" vertex="1" parent="1">
          <mxGeometry x="160" y="100" width="460" height="480" as="geometry" />
        </mxCell>
        <mxCell id="Kd0Ei4XJhB6o2B5MOtn7-2" value="&lt;font style=&quot;font-size: 20px;&quot;&gt;Select VM&lt;/font&gt;" style="text;html=1;align=center;verticalAlign=middle;whiteSpace=wrap;rounded=0;" vertex="1" parent="1">
          <mxGeometry x="190" y="150" width="190" height="40" as="geometry" />
        </mxCell>
        <mxCell id="Kd0Ei4XJhB6o2B5MOtn7-3" value="Dropdown button" style="rounded=1;fillColor=#F1F2F4;strokeColor=none;html=1;whiteSpace=wrap;fontColor=#596780;align=left;fontSize=12;spacingLeft=10;sketch=0;" vertex="1" parent="1">
          <mxGeometry x="240" y="190" width="350" height="33" as="geometry" />
        </mxCell>
        <mxCell id="Kd0Ei4XJhB6o2B5MOtn7-4" value="" style="shape=triangle;direction=south;fillColor=#596780;strokeColor=none;html=1;sketch=0;" vertex="1" parent="Kd0Ei4XJhB6o2B5MOtn7-3">
          <mxGeometry x="1" y="0.5" width="12" height="6" relative="1" as="geometry">
            <mxPoint x="-20" y="-3" as="offset" />
          </mxGeometry>
        </mxCell>
        <mxCell id="Kd0Ei4XJhB6o2B5MOtn7-5" value="&lt;div style=&quot;text-align: justify;&quot;&gt;&lt;span style=&quot;font-size: 10px; background-color: initial;&quot;&gt;Auto populated from VM database which gets from label report&lt;/span&gt;&lt;/div&gt;" style="text;strokeColor=none;fillColor=none;html=1;fontSize=24;fontStyle=1;verticalAlign=middle;align=left;" vertex="1" parent="1">
          <mxGeometry x="670" y="60" width="230" height="80" as="geometry" />
        </mxCell>
        <mxCell id="Kd0Ei4XJhB6o2B5MOtn7-7" value="" style="edgeStyle=segmentEdgeStyle;endArrow=classic;html=1;curved=0;rounded=0;endSize=8;startSize=8;" edge="1" parent="1" source="Kd0Ei4XJhB6o2B5MOtn7-5" target="Kd0Ei4XJhB6o2B5MOtn7-3">
          <mxGeometry width="50" height="50" relative="1" as="geometry">
            <mxPoint x="640" y="90" as="sourcePoint" />
            <mxPoint x="690" y="40" as="targetPoint" />
          </mxGeometry>
        </mxCell>
        <mxCell id="Kd0Ei4XJhB6o2B5MOtn7-8" value="&lt;font style=&quot;font-size: 20px;&quot;&gt;Shared Application Weightage&lt;/font&gt;" style="text;strokeColor=none;fillColor=none;html=1;fontSize=24;fontStyle=1;verticalAlign=middle;align=left;" vertex="1" parent="1">
          <mxGeometry x="240" y="270" width="350" height="40" as="geometry" />
        </mxCell>
      </root>
    </mxGraphModel>
  </diagram>
</mxfile>
